<?xml version="1.0" encoding="UTF-8" standalone="no"?>
<svg
   width="32mm"
   height="32mm"
   viewBox="0 0 32 32"
   version="1.1"
   id="squooshware-logo"
   sodipodi:docname="squooshware-logo.svg"
   inkscape:version="1.3.2 (091e20ef0f, 2023-11-25)"
   xmlns:inkscape="http://www.inkscape.org/namespaces/inkscape"
   xmlns:sodipodi="http://sodipodi.sourceforge.net/DTD/sodipodi-0.dtd"
   xmlns="http://www.w3.org/2000/svg"
   xmlns:svg="http://www.w3.org/2000/svg">
  <defs
     id="defs2" />
  <sodipodi:namedview
     id="namedview"
     pagecolor="#505050"
     bordercolor="#eeeeee"
     borderopacity="1"
     inkscape:showpageshadow="0"
     inkscape:pageopacity="0"
     inkscape:pagecheckerboard="0"
     inkscape:deskcolor="#505050"
     inkscape:document-units="mm"
     inkscape:zoom="8"
     inkscape:cx="31.75"
     inkscape:cy="60.3125"
     inkscape:window-width="3440"
     inkscape:window-height="1368"
     inkscape:window-x="0"
     inkscape:window-y="0"
     inkscape:window-maximized="1"
     inkscape:current-layer="Sketch" />
  <g
     id="Sketch"
     transform="translate(16,16) scale(1,-1)">
    <path
       id="squooshball"
       style="stroke-width:0;stroke-miterlimit:4;stroke-dasharray:none;stroke-linecap:square;fill:#ff6600"
       d="M 0.00014288542 16.000064 A 16 16 0 0 1 -15.999914 6.7903646e-06 A 16 16 0 0 1 0.00014288542 -16.00005 A 16 16 0 0 1 16.0002 6.7903646e-06 A 16 16 0 0 1 0.00014288542 16.000064 z M 2.5679448 13.498408 A 2.5 2.5 0 0 0 3.05422 13.437946 A 13.7805 13.7805 0 0 0 9.7773239 9.7110419 A 2.5000012 2.5000012 0 1 0 6.2297368 6.1877428 A 8.78051 8.78051 0 0 1 1.9457606 8.5622749 A 2.5 2.5 0 0 0 2.5679448 13.498408 z M 10.999988 5.0002184 A 2.5 2.5 0 0 0 13.500094 2.5001126 A 2.5 2.5 0 0 0 10.999988 6.7903646e-06 A 2.5 2.5 0 0 0 8.4998825 2.5001126 A 2.5 2.5 0 0 0 10.999988 5.0002184 z " />
    <title
       id="title2">b'Sketch'</title>
  </g>
</svg>
